<?xml version="1.0" encoding="utf-8"?>
<!-- Generator: Adobe Illustrator 24.3.0, SVG Export Plug-In . SVG Version: 6.00 Build 0)  -->
<svg version="1.1" id="Layer_1" xmlns="http://www.w3.org/2000/svg" xmlns:xlink="http://www.w3.org/1999/xlink" x="0px" y="0px"
	 viewBox="0 0 468.1 468.1" style="enable-background:new 0 0 468.1 468.1;" xml:space="preserve">
<style type="text/css">
	.st0{fill:#D6D6D6;}
	.st1{fill:#FEFEFE;}
	.st2{fill:#EAEAEA;}
</style>
<path class="st0" d="M41.5,468c0.6-25.8-1.4-51.6,3.8-77.2c3.6-18.4,14.3-30.2,31.1-36.8c18.6-7.3,37.4-14.2,56.2-20.8
	c15.8-5.5,30.5-13.1,41.9-25.3c7.4-8,5.3-19,1.4-28.1s-7.2-19.7-14.9-28.5s-9.5-21.8-11.7-33.7c-0.4-2.2-0.4-5.8,0.9-6.9
	c9.1-7.3,3.4-15.9,2.1-23.8c-2.6-15.9-0.6-31.5,2-47.1c0.6-3.9,2.5-9.1,5.5-10.8c17.2-10.1,32-28.6,54-24.7s43.5,3.8,60.7,19.5
	c19.4,17.6,27.7,39.7,24.9,65.6c-0.7,6.6-2.5,12.9,2,18.8c0.6,0.9,0.9,1.9,0.9,2.9c-1.2,14.9-2.4,30.9-11.7,42
	c-6.3,7.5-9,15.4-13,23.4c-11.9,23.6,0.1,34.6,20.5,45.7s41.5,18.8,63.2,25.3c28,8.3,42,26.7,46.5,54.2c-3.1,18.5-3.1,37.5,0,56
	c-0.6,3.4-1.3,6.9-1.9,10.3L41.5,468z"/>
<path class="st1" d="M2.2,0.1L0.1,2.2C-0.3,0.4,0.4-0.3,2.2,0.1z"/>
<path class="st1" d="M468,2.2l-2.1-2.1C467.7-0.3,468.4,0.4,468,2.2z"/>
<path class="st1" d="M0.1,465.9l2.1,2.1C0.4,468.4-0.3,467.7,0.1,465.9z"/>
<path class="st2" d="M465.9,468l2.1-2.1C468.4,467.7,467.7,468.4,465.9,468z"/>
<path class="st2" d="M407.8,457.7c-3.1-18.5-3.1-37.5,0-56c4.9,13.2,1.3,26.9,2,40.3C410.1,447.1,411.8,452.9,407.8,457.7z"/>
</svg>
